Coordinates
version=1
nRows=19
nColumns=24
inDegrees=yes

Units are S.I. units (second, meters, Newtons, ...)
Angles are in degrees.

endheader
time	pelvis_tilt	pelvis_list	pelvis_rotation	pelvis_tx	pelvis_ty	pelvis_tz	hip_flexion_r	hip_adduction_r	hip_rotation_r	knee_angle_r	ankle_angle_r	subtalar_angle_r	mtp_angle_r	hip_flexion_l	hip_adduction_l	hip_rotation_l	knee_angle_l	ankle_angle_l	subtalar_angle_l	mtp_angle_l	lumbar_extension	lumbar_bending	lumbar_rotation
      1.29150000	     -2.55727107	      6.22802439	      1.08765790	      0.16385227	      0.99394529	      0.29669497	     20.86893911	     -7.65657422	     -0.44873038	    -70.67688418	     -3.78014288	    -10.59494060	      1.44172153	     11.04751582	     11.71991953	      2.29864512	    -10.25171012	     -0.16245541	    -12.42794724	     -1.23695725	     -0.14645013	     -4.74271376	      2.29367414
      1.29566667	     -2.48237687	      6.15075046	      1.16187061	      0.16894088	      0.99470473	      0.29642643	     21.33724151	     -7.54228814	     -0.36430087	    -70.51226861	     -3.02796110	    -10.82088328	      1.41634005	     10.48248113	     11.65601676	      2.46526504	     -9.98678291	     -0.00538023	    -12.35620178	     -1.24010180	     -0.24254365	     -4.65578607	      2.21905772
      1.29983333	     -2.41810166	      6.09167277	      1.23424453	      0.17400492	      0.99539235	      0.29615848	     21.81414262	     -7.45164782	     -0.27921481	    -70.30975438	     -2.29754528	    -11.04144430	      1.38347302	      9.93216374	     11.61160582	      2.64118819	     -9.72397974	      0.14218285	    -12.31203641	     -1.24683754	     -0.32713519	     -4.58805308	      2.13148785
      1.30400000	     -2.33273305	      6.01502121	      1.31352831	      0.17906116	      0.99610790	      0.29588876	     22.24514468	     -7.34366516	     -0.21029840	    -70.03822658	     -1.58094904	    -11.26119917	      1.34051696	      9.35857928	     11.54746323	      2.83732470	     -9.45912930	      0.28348773	    -12.28367130	     -1.25822470	     -0.43988870	     -4.50120578	      2.03304459
      1.30816667	     -2.27849611	      5.93361829	      1.39753464	      0.18413117	      0.99674877	      0.29561520	     22.69217901	     -7.23532057	     -0.15307520	    -69.70801244	     -0.89761460	    -11.45380479	      1.30639172	      8.82469628	     11.47641868	      3.02509719	     -9.20723213	      0.43352408	    -12.25672549	     -1.26822634	     -0.49413625	     -4.41039693	      1.95432147
      1.31233333	     -2.20612414	      5.85566907	      1.47600897	      0.18917555	      0.99737487	      0.29535236	     23.11079247	     -7.13299840	     -0.10064473	    -69.33202104	     -0.23580175	    -11.65068853	      1.26919525	      8.27565018	     11.40668113	      3.21773346	     -8.95964565	      0.58407497	    -12.23463748	     -1.28038212	     -0.58483945	     -4.31958833	      1.86868357
      1.31650000	     -2.11797985	      5.79815443	      1.54669154	      0.19419123	      0.99797628	      0.29509645	     23.50509424	     -7.04905304	     -0.03352606	    -68.91258545	      0.37844814	    -11.88492503	      1.16785462	      7.70246994	     11.35854561	      3.44190576	     -8.69131434	      0.70743436	    -12.26253219	     -1.31838887	     -0.71568302	     -4.25397167	      1.71132015
      1.32066667	     -2.05513246	      5.71793900	      1.62934278	      0.19920663	      0.99852658	      0.29484080	     23.90405684	     -6.94532612	      0.00996893	    -68.43045289	      0.99632097	    -12.07273551	      1.06679230	      7.17170601	     11.28314023	      3.64896861	     -8.45370945	      0.85426003	    -12.26294826	     -1.35895758	     -0.79987253	     -4.16402068	      1.61542112
      1.32483333	     -2.01338176	      5.62000825	      1.71978522	      0.20420606	      0.99902298	      0.29459487	     24.30625904	     -6.82321885	      0.04129682	    -67.88700827	      1.57940166	    -12.22980123	      1.00602960	      6.68135263	     11.18550035	      3.84336778	     -8.24830136	      1.01407470	    -12.23684720	     -1.38421427	     -0.85534418	     -4.06532085	      1.55384051
      1.32900000	     -1.96582194	      5.54019022	      1.80331127	      0.20919690	      0.99947248	      0.29434156	     24.69562177	     -6.72743142	      0.06879477	    -67.30988880	      2.15103937	    -12.39506103	      0.95546630	      6.18267240	     11.10609391	      4.02819488	     -8.03428532	      1.17917929	    -12.21149394	     -1.40578477	     -0.92582066	     -3.95663392	      1.48714931
      1.33316667	     -1.86708029	      5.48056852	      1.87470651	      0.21420406	      0.99997683	      0.29411604	     25.00934722	     -6.64862437	      0.10479210	    -66.67355543	      2.66585688	    -12.60452284	      0.83554947	      5.60912539	     11.04322172	      4.22718320	     -7.77898404	      1.32016630	    -12.22462820	     -1.45993085	     -1.05388736	     -3.89331922	      1.34620147
      1.33733333	     -1.83195829	      5.38445148	      1.96701952	      0.21917538	      1.00036460	      0.29388485	     25.37016065	     -6.53566981	      0.11467972	    -65.97702131	      3.17534034	    -12.73735726	      0.77622546	      5.13966235	     10.94087427	      4.41329690	     -7.59176501	      1.48771116	    -12.19954124	     -1.48671821	     -1.10631780	     -3.78567746	      1.29666648
      1.34150000	     -1.77194317	      5.31564986	      2.04747918	      0.22414692	      1.00074196	      0.29367453	     25.69528350	     -6.44919405	      0.13520895	    -65.24509721	      3.65731532	    -12.90212722	      0.70639322	      4.63295316	     10.86323957	      4.59016652	     -7.37962755	      1.65149036	    -12.17742673	     -1.51875900	     -1.18774020	     -3.71079362	      1.21767689
      1.34566667	     -1.70123928	      5.26988925	      2.11524904	      0.22912097	      1.00107248	      0.29346421	     26.00061338	     -6.39086023	      0.15835248	    -64.47876159	      4.07731981	    -13.08994292	      0.56203208	      4.10069554	     10.80875724	      4.77346420	     -7.13689844	      1.80116934	    -12.18793933	     -1.58771997	     -1.29394438	     -3.65580853	      1.08480333
      1.34983333	     -1.65057611	      5.20923103	      2.19467822	      0.23407910	      1.00136092	      0.29326407	     26.30330680	     -6.31753337	      0.16794498	    -63.65227075	      4.49536416	    -13.23793766	      0.41895347	      3.60715869	     10.73557377	      4.94849907	     -6.92651614	      1.96658902	    -12.17438480	     -1.65671248	     -1.36838970	     -3.59126303	      1.00048281
      1.35400000	     -1.59665120	      5.14876680	      2.27273645	      0.23904000	      1.00163171	      0.29307547	     26.58262684	     -6.24426917	      0.17040035	    -62.77439977	      4.86991072	    -13.38116041	      0.27430586	      3.11009129	     10.65951657	      5.11705859	     -6.71570726	      2.12890328	    -12.15204042	     -1.72624311	     -1.45003890	     -3.52331356	      0.92019804
      1.35816667	     -1.58470782	      5.07697887	      2.36201181	      0.24398686	      1.00181716	      0.29288603	     26.88612893	     -6.16167086	      0.16138915	    -61.84445824	      5.22776205	    -13.49546283	      0.20393675	      2.67502049	     10.57090291	      5.27718944	     -6.53691482	      2.29971651	    -12.11161516	     -1.75820741	     -1.47296416	     -3.44262181	      0.87715432
      1.36233333	     -1.51037325	      5.03633210	      2.42704981	      0.24895431	      1.00203210	      0.29272691	     27.11336277	     -6.10932396	      0.15843026	    -60.88427566	      5.53174630	    -13.66366885	      0.07056808	      2.14439596	     10.50856186	      5.42492988	     -6.29867453	      2.46433581	    -12.08036436	     -1.82033711	     -1.58405995	     -3.40206204	      0.77083296
      1.36650000	     -1.52187647	      4.99067053	      2.51595998	      0.25387184	      1.00209918	      0.29256026	     27.41606400	     -6.05581796	      0.14722853	    -59.88024941	      5.83929518	    -13.75818569	      0.01021887	      1.73671762	     10.44380639	      5.58485129	     -6.11925615	      2.62862773	    -12.03654951	     -1.84671264	     -1.59452580	     -3.35981493	      0.73187877
